<svg width="21" height="21" viewBox="0 0 21 21" fill="none" xmlns="http://www.w3.org/2000/svg">
<g clip-path="url(#clip0_128_266)">
<path d="M0 10.2C0 14.5545 2.72935 18.2724 6.5705 19.7353C6.477 18.9389 6.37755 17.6256 6.59175 16.7042C6.7762 15.912 7.7826 11.6569 7.7826 11.6569C7.7826 11.6569 7.47915 11.0491 7.47915 10.149C7.47915 8.738 8.29685 7.684 9.316 7.684C10.183 7.684 10.6012 8.33425 10.6012 9.1137C10.6012 9.98495 10.0462 11.2871 9.7597 12.495C9.52085 13.5056 10.2671 14.3301 11.2633 14.3301C13.0679 14.3301 14.4559 12.427 14.4559 9.6798C14.4559 7.24795 12.7083 5.5488 10.2136 5.5488C7.3253 5.5488 5.62955 7.71545 5.62955 9.9552C5.62955 10.8281 5.9653 11.7631 6.3852 12.2723C6.421 12.3108 6.44629 12.3578 6.45865 12.4088C6.47101 12.4599 6.47001 12.5133 6.45575 12.5638C6.3784 12.8851 6.2067 13.5745 6.17355 13.7156C6.1285 13.9009 6.0265 13.9408 5.83355 13.8507C4.56535 13.2608 3.77315 11.407 3.77315 9.9178C3.77315 6.71415 6.0996 3.77315 10.4813 3.77315C14.0037 3.77315 16.7416 6.2832 16.7416 9.6373C16.7416 13.1368 14.5358 15.9536 11.4724 15.9536C10.4431 15.9536 9.47665 15.4181 9.14515 14.7866C9.14515 14.7866 8.636 16.7263 8.51275 17.2006C8.27305 18.122 7.60835 19.2882 7.1961 19.9503C8.1464 20.2428 9.1545 20.4 10.2 20.4C15.8329 20.4 20.4 15.8329 20.4 10.2C20.4 4.56705 15.8329 0 10.2 0C4.56705 0 0 4.56705 0 10.2Z" fill="#DF0022"/>
</g>
<defs>
<clipPath id="clip0_128_266">
<rect width="20.4" height="20.4" fill="white"/>
</clipPath>
</defs>
</svg>
