<svg width="140" height="17" viewBox="0 0 140 17" fill="none" xmlns="http://www.w3.org/2000/svg">
<path d="M6.12305 9.63574H2.10547L2.08398 7.42285H5.45703C6.05143 7.42285 6.53841 7.34766 6.91797 7.19727C7.29753 7.03971 7.5804 6.81413 7.7666 6.52051C7.95996 6.21973 8.05664 5.85449 8.05664 5.4248C8.05664 4.93783 7.96354 4.54395 7.77734 4.24316C7.59831 3.94238 7.31543 3.72396 6.92871 3.58789C6.54915 3.45182 6.05859 3.38379 5.45703 3.38379H3.22266V16.5H0V0.859375H5.45703C6.36654 0.859375 7.17936 0.945312 7.89551 1.11719C8.61882 1.28906 9.23112 1.55046 9.73242 1.90137C10.2337 2.25228 10.6169 2.69629 10.8818 3.2334C11.1468 3.76335 11.2793 4.39355 11.2793 5.12402C11.2793 5.76855 11.1325 6.36296 10.8389 6.90723C10.5524 7.4515 10.0977 7.89551 9.47461 8.23926C8.85872 8.58301 8.05306 8.77279 7.05762 8.80859L6.12305 9.63574ZM5.9834 16.5H1.22461L2.48145 13.9863H5.9834C6.54915 13.9863 7.01107 13.8968 7.36914 13.7178C7.72721 13.5316 7.99219 13.2809 8.16406 12.9658C8.33594 12.6507 8.42188 12.2891 8.42188 11.8809C8.42188 11.4225 8.3431 11.0251 8.18555 10.6885C8.03516 10.3519 7.79167 10.0941 7.45508 9.91504C7.11849 9.72884 6.67448 9.63574 6.12305 9.63574H3.01855L3.04004 7.42285H6.90723L7.64844 8.29297C8.60091 8.27865 9.36719 8.44694 9.94727 8.79785C10.5345 9.1416 10.9606 9.58919 11.2256 10.1406C11.4977 10.6921 11.6338 11.2829 11.6338 11.9131C11.6338 12.9157 11.4154 13.7607 10.9785 14.4482C10.5417 15.1286 9.90072 15.6406 9.05566 15.9844C8.21777 16.3281 7.19368 16.5 5.9834 16.5ZM19.207 16.7148C18.3047 16.7148 17.4954 16.5716 16.7793 16.2852C16.0632 15.9915 15.4544 15.5869 14.9531 15.0713C14.459 14.5557 14.0794 13.9577 13.8145 13.2773C13.5495 12.5898 13.417 11.8594 13.417 11.0859V10.6562C13.417 9.77539 13.5423 8.96973 13.793 8.23926C14.0436 7.50879 14.4017 6.875 14.8672 6.33789C15.3398 5.80078 15.9128 5.389 16.5859 5.10254C17.2591 4.80892 18.0182 4.66211 18.8633 4.66211C19.6868 4.66211 20.4173 4.79818 21.0547 5.07031C21.6921 5.34245 22.2256 5.72917 22.6553 6.23047C23.0921 6.73177 23.4215 7.33333 23.6436 8.03516C23.8656 8.72982 23.9766 9.50326 23.9766 10.3555V11.6445H14.7383V9.58203H20.9365V9.3457C20.9365 8.91602 20.8577 8.53288 20.7002 8.19629C20.5498 7.85254 20.3206 7.5804 20.0127 7.37988C19.7048 7.17936 19.3109 7.0791 18.8311 7.0791C18.4229 7.0791 18.0719 7.16862 17.7783 7.34766C17.4847 7.52669 17.2448 7.77734 17.0586 8.09961C16.8796 8.42188 16.7435 8.80143 16.6504 9.23828C16.5645 9.66797 16.5215 10.1406 16.5215 10.6562V11.0859C16.5215 11.5514 16.5859 11.9811 16.7148 12.375C16.8509 12.7689 17.0407 13.109 17.2842 13.3955C17.5348 13.682 17.8356 13.904 18.1865 14.0615C18.5446 14.2191 18.9492 14.2979 19.4004 14.2979C19.959 14.2979 20.4782 14.1904 20.958 13.9756C21.445 13.7536 21.8639 13.4206 22.2148 12.9766L23.7188 14.6094C23.4753 14.9603 23.1423 15.2969 22.7197 15.6191C22.3044 15.9414 21.8031 16.2064 21.2158 16.4141C20.6286 16.6146 19.959 16.7148 19.207 16.7148ZM32.0117 13.8789V8.70117C32.0117 8.32878 31.9508 8.01009 31.8291 7.74512C31.7074 7.47298 31.5176 7.26172 31.2598 7.11133C31.0091 6.96094 30.6833 6.88574 30.2822 6.88574C29.9385 6.88574 29.6413 6.94661 29.3906 7.06836C29.14 7.18294 28.9466 7.35124 28.8105 7.57324C28.6745 7.78809 28.6064 8.04232 28.6064 8.33594H25.5127C25.5127 7.8418 25.6273 7.37272 25.8564 6.92871C26.0856 6.4847 26.4186 6.0944 26.8555 5.75781C27.2923 5.41406 27.8115 5.14551 28.4131 4.95215C29.0218 4.75879 29.7021 4.66211 30.4541 4.66211C31.3564 4.66211 32.1585 4.8125 32.8604 5.11328C33.5622 5.41406 34.1136 5.86523 34.5146 6.4668C34.9229 7.06836 35.127 7.82031 35.127 8.72266V13.6963C35.127 14.3337 35.1663 14.8564 35.2451 15.2646C35.3239 15.6657 35.4385 16.0166 35.5889 16.3174V16.5H32.4629C32.3125 16.1849 32.1979 15.791 32.1191 15.3184C32.0475 14.8385 32.0117 14.3587 32.0117 13.8789ZM32.4199 9.4209L32.4414 11.1719H30.7119C30.3037 11.1719 29.9492 11.2184 29.6484 11.3115C29.3477 11.4046 29.1006 11.5371 28.9072 11.709C28.7139 11.8737 28.5706 12.0671 28.4775 12.2891C28.3916 12.5111 28.3486 12.7546 28.3486 13.0195C28.3486 13.2845 28.4095 13.5244 28.5312 13.7393C28.653 13.9469 28.8285 14.1117 29.0576 14.2334C29.2868 14.348 29.5553 14.4053 29.8633 14.4053C30.3288 14.4053 30.7334 14.3122 31.0771 14.126C31.4209 13.9398 31.6859 13.7106 31.8721 13.4385C32.0654 13.1663 32.1657 12.9085 32.1729 12.665L32.9893 13.9756C32.8747 14.2692 32.7171 14.5736 32.5166 14.8887C32.3232 15.2038 32.0762 15.501 31.7754 15.7803C31.4746 16.0524 31.113 16.278 30.6904 16.457C30.2679 16.6289 29.7666 16.7148 29.1865 16.7148C28.4489 16.7148 27.7793 16.568 27.1777 16.2744C26.5833 15.9736 26.1107 15.5618 25.7598 15.0391C25.416 14.5091 25.2441 13.9076 25.2441 13.2344C25.2441 12.6257 25.3587 12.085 25.5879 11.6123C25.8171 11.1396 26.1536 10.7422 26.5977 10.4199C27.0488 10.0905 27.611 9.84342 28.2842 9.67871C28.9574 9.50684 29.738 9.4209 30.626 9.4209H32.4199ZM40.541 7.3584V16.5H37.4473V4.87695H40.3477L40.541 7.3584ZM40.0898 10.2803H39.252C39.252 9.4209 39.363 8.64746 39.585 7.95996C39.807 7.2653 40.1185 6.67448 40.5195 6.1875C40.9206 5.69336 41.3968 5.31738 41.9482 5.05957C42.5068 4.7946 43.1299 4.66211 43.8174 4.66211C44.3617 4.66211 44.8594 4.74089 45.3105 4.89844C45.7617 5.05599 46.1484 5.30664 46.4707 5.65039C46.8001 5.99414 47.0508 6.44889 47.2227 7.01465C47.4017 7.5804 47.4912 8.27148 47.4912 9.08789V16.5H44.376V9.07715C44.376 8.56152 44.3044 8.16048 44.1611 7.87402C44.0179 7.58757 43.8066 7.38704 43.5273 7.27246C43.2552 7.15072 42.9186 7.08984 42.5176 7.08984C42.1022 7.08984 41.7406 7.1722 41.4326 7.33691C41.1318 7.50163 40.8812 7.73079 40.6807 8.02441C40.4873 8.31087 40.3405 8.64746 40.2402 9.03418C40.14 9.4209 40.0898 9.83626 40.0898 10.2803ZM56.1279 13.2881C56.1279 13.0661 56.0635 12.8656 55.9346 12.6865C55.8057 12.5075 55.5658 12.3428 55.2148 12.1924C54.8711 12.0348 54.3734 11.8916 53.7217 11.7627C53.1344 11.6338 52.5866 11.4727 52.0781 11.2793C51.5768 11.0788 51.14 10.8389 50.7676 10.5596C50.4023 10.2803 50.1159 9.95085 49.9082 9.57129C49.7005 9.18457 49.5967 8.74414 49.5967 8.25C49.5967 7.76302 49.7005 7.30469 49.9082 6.875C50.123 6.44531 50.4274 6.06576 50.8213 5.73633C51.2223 5.39974 51.7093 5.13835 52.2822 4.95215C52.8623 4.75879 53.514 4.66211 54.2373 4.66211C55.2471 4.66211 56.1136 4.82324 56.8369 5.14551C57.5674 5.46777 58.126 5.91178 58.5127 6.47754C58.9066 7.03613 59.1035 7.6735 59.1035 8.38965H56.0098C56.0098 8.08887 55.9453 7.82031 55.8164 7.58398C55.6947 7.34049 55.5013 7.15072 55.2363 7.01465C54.9785 6.87142 54.6419 6.7998 54.2266 6.7998C53.8828 6.7998 53.5856 6.86068 53.335 6.98242C53.0843 7.09701 52.891 7.25456 52.7549 7.45508C52.626 7.64844 52.5615 7.86328 52.5615 8.09961C52.5615 8.27865 52.5973 8.43978 52.6689 8.58301C52.7477 8.71908 52.873 8.8444 53.0449 8.95898C53.2168 9.07357 53.4388 9.18099 53.7109 9.28125C53.9902 9.37435 54.334 9.46029 54.7422 9.53906C55.5801 9.71094 56.3285 9.93652 56.9873 10.2158C57.6462 10.488 58.1689 10.8604 58.5557 11.333C58.9424 11.7985 59.1357 12.4108 59.1357 13.1699C59.1357 13.6855 59.0212 14.1582 58.792 14.5879C58.5628 15.0176 58.2334 15.3936 57.8037 15.7158C57.374 16.0309 56.8584 16.278 56.2568 16.457C55.6624 16.6289 54.9928 16.7148 54.248 16.7148C53.1667 16.7148 52.25 16.5215 51.498 16.1348C50.7533 15.748 50.1875 15.2575 49.8008 14.6631C49.4212 14.0615 49.2314 13.4456 49.2314 12.8154H52.1641C52.1784 13.238 52.2858 13.5781 52.4863 13.8359C52.694 14.0938 52.9554 14.2799 53.2705 14.3945C53.5928 14.5091 53.9401 14.5664 54.3125 14.5664C54.7135 14.5664 55.0465 14.5127 55.3115 14.4053C55.5765 14.2907 55.777 14.1403 55.9131 13.9541C56.0563 13.7607 56.1279 13.5387 56.1279 13.2881Z" fill="white"/>
<path d="M74.959 12.4072C74.959 12.1279 74.916 11.8773 74.8301 11.6553C74.7513 11.4261 74.6009 11.2184 74.3789 11.0322C74.1569 10.8389 73.8454 10.6491 73.4443 10.4629C73.0433 10.2767 72.5241 10.0833 71.8867 9.88281C71.1777 9.65365 70.5046 9.39583 69.8672 9.10938C69.237 8.82292 68.6784 8.48991 68.1914 8.11035C67.7116 7.72363 67.332 7.27604 67.0527 6.76758C66.7806 6.25911 66.6445 5.66829 66.6445 4.99512C66.6445 4.34342 66.7878 3.7526 67.0742 3.22266C67.3607 2.68555 67.7617 2.22721 68.2773 1.84766C68.793 1.46094 69.4017 1.16374 70.1035 0.956055C70.8125 0.748372 71.5895 0.644531 72.4346 0.644531C73.5876 0.644531 74.5938 0.852214 75.4531 1.26758C76.3125 1.68294 76.9785 2.25228 77.4512 2.97559C77.931 3.69889 78.1709 4.52604 78.1709 5.45703H74.9697C74.9697 4.9987 74.873 4.59766 74.6797 4.25391C74.4935 3.90299 74.207 3.62728 73.8203 3.42676C73.4408 3.22624 72.9609 3.12598 72.3809 3.12598C71.8223 3.12598 71.3568 3.21191 70.9844 3.38379C70.612 3.5485 70.3327 3.77409 70.1465 4.06055C69.9603 4.33984 69.8672 4.65495 69.8672 5.00586C69.8672 5.27083 69.9316 5.51074 70.0605 5.72559C70.1966 5.94043 70.3971 6.14095 70.6621 6.32715C70.9271 6.51335 71.2529 6.6888 71.6396 6.85352C72.0264 7.01823 72.474 7.17936 72.9824 7.33691C73.8346 7.59473 74.583 7.88477 75.2275 8.20703C75.8792 8.5293 76.4235 8.89095 76.8604 9.29199C77.2972 9.69303 77.6266 10.1478 77.8486 10.6562C78.0706 11.1647 78.1816 11.7412 78.1816 12.3857C78.1816 13.0661 78.0492 13.6748 77.7842 14.2119C77.5192 14.749 77.1361 15.2038 76.6348 15.5762C76.1335 15.9486 75.5355 16.2314 74.8408 16.4248C74.1462 16.6182 73.3691 16.7148 72.5098 16.7148C71.7363 16.7148 70.9736 16.6146 70.2217 16.4141C69.4697 16.2064 68.7858 15.8949 68.1699 15.4795C67.5612 15.0641 67.0742 14.5342 66.709 13.8896C66.3438 13.2451 66.1611 12.4824 66.1611 11.6016H69.3945C69.3945 12.0885 69.4697 12.5003 69.6201 12.8369C69.7705 13.1735 69.9818 13.4456 70.2539 13.6533C70.5332 13.861 70.8626 14.0114 71.2422 14.1045C71.6289 14.1976 72.0514 14.2441 72.5098 14.2441C73.0684 14.2441 73.5267 14.1654 73.8848 14.0078C74.25 13.8503 74.5186 13.6318 74.6904 13.3525C74.8695 13.0732 74.959 12.7581 74.959 12.4072ZM85.873 4.87695V7.06836H79.1055V4.87695H85.873ZM80.7812 2.00879H83.875V12.998C83.875 13.3346 83.918 13.5924 84.0039 13.7715C84.097 13.9505 84.2331 14.0758 84.4121 14.1475C84.5911 14.2119 84.8167 14.2441 85.0889 14.2441C85.2822 14.2441 85.4541 14.237 85.6045 14.2227C85.762 14.2012 85.8945 14.1797 86.002 14.1582L86.0127 16.4355C85.7477 16.5215 85.4613 16.5895 85.1533 16.6396C84.8454 16.6898 84.5052 16.7148 84.1328 16.7148C83.4525 16.7148 82.8581 16.6038 82.3496 16.3818C81.8483 16.1527 81.4616 15.7874 81.1895 15.2861C80.9173 14.7848 80.7812 14.126 80.7812 13.3096V2.00879ZM94.5098 13.7178V4.87695H97.6035V16.5H94.6924L94.5098 13.7178ZM94.8535 11.333L95.7666 11.3115C95.7666 12.085 95.6771 12.8047 95.498 13.4707C95.319 14.1296 95.0505 14.7025 94.6924 15.1895C94.3343 15.6693 93.8831 16.0452 93.3389 16.3174C92.7946 16.5824 92.1536 16.7148 91.416 16.7148C90.8503 16.7148 90.3275 16.6361 89.8477 16.4785C89.375 16.3138 88.9668 16.0596 88.623 15.7158C88.2865 15.3649 88.0215 14.9173 87.8281 14.373C87.6419 13.8216 87.5488 13.1592 87.5488 12.3857V4.87695H90.6426V12.4072C90.6426 12.751 90.682 13.041 90.7607 13.2773C90.8467 13.5137 90.9648 13.707 91.1152 13.8574C91.2656 14.0078 91.4411 14.1152 91.6416 14.1797C91.8493 14.2441 92.0785 14.2764 92.3291 14.2764C92.9665 14.2764 93.4678 14.1475 93.833 13.8896C94.2054 13.6318 94.4668 13.2809 94.6172 12.8369C94.7747 12.3857 94.8535 11.8844 94.8535 11.333ZM106.831 13.9648V0H109.946V16.5H107.143L106.831 13.9648ZM99.4834 10.8281V10.6025C99.4834 9.71452 99.5837 8.90885 99.7842 8.18555C99.9847 7.45508 100.278 6.82845 100.665 6.30566C101.052 5.78288 101.528 5.37826 102.094 5.0918C102.66 4.80534 103.304 4.66211 104.027 4.66211C104.708 4.66211 105.302 4.80534 105.811 5.0918C106.326 5.37826 106.763 5.78646 107.121 6.31641C107.486 6.83919 107.78 7.45866 108.002 8.1748C108.224 8.88379 108.385 9.66081 108.485 10.5059V11C108.385 11.8092 108.224 12.5612 108.002 13.2559C107.78 13.9505 107.486 14.5592 107.121 15.082C106.763 15.5977 106.326 15.9987 105.811 16.2852C105.295 16.5716 104.693 16.7148 104.006 16.7148C103.283 16.7148 102.638 16.568 102.072 16.2744C101.514 15.9808 101.041 15.569 100.654 15.0391C100.275 14.5091 99.9847 13.8861 99.7842 13.1699C99.5837 12.4538 99.4834 11.6732 99.4834 10.8281ZM102.577 10.6025V10.8281C102.577 11.3079 102.613 11.7555 102.685 12.1709C102.763 12.5863 102.889 12.9551 103.061 13.2773C103.24 13.5924 103.469 13.8395 103.748 14.0186C104.035 14.1904 104.382 14.2764 104.79 14.2764C105.32 14.2764 105.757 14.1582 106.101 13.9219C106.444 13.6784 106.706 13.3454 106.885 12.9229C107.071 12.5003 107.178 12.0133 107.207 11.4619V10.0547C107.186 9.60352 107.121 9.19889 107.014 8.84082C106.913 8.47559 106.763 8.16406 106.562 7.90625C106.369 7.64844 106.126 7.44792 105.832 7.30469C105.546 7.16146 105.205 7.08984 104.812 7.08984C104.41 7.08984 104.067 7.18294 103.78 7.36914C103.494 7.54818 103.261 7.79525 103.082 8.11035C102.91 8.42546 102.781 8.79785 102.695 9.22754C102.617 9.65007 102.577 10.1084 102.577 10.6025ZM115.629 4.87695V16.5H112.524V4.87695H115.629ZM112.331 1.84766C112.331 1.39648 112.489 1.02409 112.804 0.730469C113.119 0.436849 113.541 0.290039 114.071 0.290039C114.594 0.290039 115.013 0.436849 115.328 0.730469C115.65 1.02409 115.812 1.39648 115.812 1.84766C115.812 2.29883 115.65 2.67122 115.328 2.96484C115.013 3.25846 114.594 3.40527 114.071 3.40527C113.541 3.40527 113.119 3.25846 112.804 2.96484C112.489 2.67122 112.331 2.29883 112.331 1.84766ZM117.691 10.8066V10.5811C117.691 9.72884 117.813 8.94466 118.057 8.22852C118.3 7.50521 118.655 6.87858 119.12 6.34863C119.586 5.81868 120.159 5.4069 120.839 5.11328C121.519 4.8125 122.3 4.66211 123.181 4.66211C124.062 4.66211 124.846 4.8125 125.533 5.11328C126.221 5.4069 126.797 5.81868 127.263 6.34863C127.735 6.87858 128.093 7.50521 128.337 8.22852C128.58 8.94466 128.702 9.72884 128.702 10.5811V10.8066C128.702 11.6517 128.58 12.4359 128.337 13.1592C128.093 13.8753 127.735 14.502 127.263 15.0391C126.797 15.569 126.224 15.9808 125.544 16.2744C124.864 16.568 124.083 16.7148 123.202 16.7148C122.321 16.7148 121.537 16.568 120.85 16.2744C120.169 15.9808 119.593 15.569 119.12 15.0391C118.655 14.502 118.3 13.8753 118.057 13.1592C117.813 12.4359 117.691 11.6517 117.691 10.8066ZM120.785 10.5811V10.8066C120.785 11.2936 120.828 11.7484 120.914 12.1709C121 12.5934 121.136 12.9658 121.322 13.2881C121.516 13.6032 121.766 13.8503 122.074 14.0293C122.382 14.2083 122.758 14.2979 123.202 14.2979C123.632 14.2979 124.001 14.2083 124.309 14.0293C124.617 13.8503 124.864 13.6032 125.05 13.2881C125.236 12.9658 125.372 12.5934 125.458 12.1709C125.551 11.7484 125.598 11.2936 125.598 10.8066V10.5811C125.598 10.1084 125.551 9.66439 125.458 9.24902C125.372 8.8265 125.232 8.4541 125.039 8.13184C124.853 7.80241 124.606 7.5446 124.298 7.3584C123.99 7.1722 123.618 7.0791 123.181 7.0791C122.744 7.0791 122.371 7.1722 122.063 7.3584C121.763 7.5446 121.516 7.80241 121.322 8.13184C121.136 8.4541 121 8.8265 120.914 9.24902C120.828 9.66439 120.785 10.1084 120.785 10.5811ZM136.888 13.2881C136.888 13.0661 136.823 12.8656 136.694 12.6865C136.565 12.5075 136.326 12.3428 135.975 12.1924C135.631 12.0348 135.133 11.8916 134.481 11.7627C133.894 11.6338 133.346 11.4727 132.838 11.2793C132.337 11.0788 131.9 10.8389 131.527 10.5596C131.162 10.2803 130.876 9.95085 130.668 9.57129C130.46 9.18457 130.356 8.74414 130.356 8.25C130.356 7.76302 130.46 7.30469 130.668 6.875C130.883 6.44531 131.187 6.06576 131.581 5.73633C131.982 5.39974 132.469 5.13835 133.042 4.95215C133.622 4.75879 134.274 4.66211 134.997 4.66211C136.007 4.66211 136.873 4.82324 137.597 5.14551C138.327 5.46777 138.886 5.91178 139.272 6.47754C139.666 7.03613 139.863 7.6735 139.863 8.38965H136.77C136.77 8.08887 136.705 7.82031 136.576 7.58398C136.454 7.34049 136.261 7.15072 135.996 7.01465C135.738 6.87142 135.402 6.7998 134.986 6.7998C134.643 6.7998 134.345 6.86068 134.095 6.98242C133.844 7.09701 133.651 7.25456 133.515 7.45508C133.386 7.64844 133.321 7.86328 133.321 8.09961C133.321 8.27865 133.357 8.43978 133.429 8.58301C133.507 8.71908 133.633 8.8444 133.805 8.95898C133.977 9.07357 134.199 9.18099 134.471 9.28125C134.75 9.37435 135.094 9.46029 135.502 9.53906C136.34 9.71094 137.088 9.93652 137.747 10.2158C138.406 10.488 138.929 10.8604 139.315 11.333C139.702 11.7985 139.896 12.4108 139.896 13.1699C139.896 13.6855 139.781 14.1582 139.552 14.5879C139.323 15.0176 138.993 15.3936 138.563 15.7158C138.134 16.0309 137.618 16.278 137.017 16.457C136.422 16.6289 135.753 16.7148 135.008 16.7148C133.926 16.7148 133.01 16.5215 132.258 16.1348C131.513 15.748 130.947 15.2575 130.561 14.6631C130.181 14.0615 129.991 13.4456 129.991 12.8154H132.924C132.938 13.238 133.046 13.5781 133.246 13.8359C133.454 14.0938 133.715 14.2799 134.03 14.3945C134.353 14.5091 134.7 14.5664 135.072 14.5664C135.473 14.5664 135.806 14.5127 136.071 14.4053C136.336 14.2907 136.537 14.1403 136.673 13.9541C136.816 13.7607 136.888 13.5387 136.888 13.2881Z" fill="url(#paint0_linear_129_382)"/>
<defs>
<linearGradient id="paint0_linear_129_382" x1="67.1035" y1="16.5" x2="141.604" y2="16.5" gradientUnits="userSpaceOnUse">
<stop stop-color="#FC4A1A"/>
<stop offset="1" stop-color="#F7B733"/>
</linearGradient>
</defs>
</svg>
