<svg width="23" height="21" viewBox="0 0 23 21" fill="none" xmlns="http://www.w3.org/2000/svg">
<g clip-path="url(#clip0_128_253)">
<path d="M9.18333 9.45094C10.4421 8.84531 11.0992 7.92891 11.0992 6.5025C11.0992 3.68953 9.01708 3.00422 6.61438 3.00422H0L0 17.1248H6.80042C9.34958 17.1248 11.7444 15.8937 11.7444 13.0249C11.7444 11.2519 10.9092 9.94102 9.18333 9.45094ZM3.08354 5.41477H5.97708C7.08938 5.41477 8.09083 5.72953 8.09083 7.02844C8.09083 8.22773 7.31104 8.70984 6.21062 8.70984H3.08354V5.41477ZM6.38083 14.7263H3.08354L3.08354 10.8375H6.44417C7.80188 10.8375 8.66083 11.4073 8.66083 12.8536C8.66083 14.28 7.63562 14.7263 6.38083 14.7263ZM20.5715 5.13586H14.8833V3.74531H20.5715V5.13586ZM22.8 12.1603C22.8 9.13617 21.0425 6.61406 17.856 6.61406C14.7606 6.61406 12.6587 8.95687 12.6587 12.0248C12.6587 15.2084 14.6498 17.3918 17.856 17.3918C20.2825 17.3918 21.854 16.2921 22.61 13.9533H20.1479C19.8827 14.8259 18.7902 15.288 17.9431 15.288C16.3083 15.288 15.4494 14.3238 15.4494 12.6862H22.7763C22.7881 12.5189 22.8 12.3396 22.8 12.1603ZM15.4533 10.9172C15.5444 9.57445 16.431 8.73375 17.769 8.73375C19.1702 8.73375 19.8748 9.5625 19.9935 10.9172H15.4533Z" fill="#0057FF"/>
</g>
<defs>
<clipPath id="clip0_128_253">
<rect width="22.8" height="20.4" fill="white"/>
</clipPath>
</defs>
</svg>
