<svg width="25" height="25" viewBox="0 0 25 25" fill="none" xmlns="http://www.w3.org/2000/svg">
<path d="M22.4 12.2C22.4017 13.5435 22.1372 14.874 21.6217 16.1147C21.1062 17.3553 20.3499 18.4815 19.3966 19.4282C18.4511 20.3721 17.3289 21.1203 16.094 21.6302C14.8592 22.1402 13.536 22.4017 12.2 22.4C6.56655 22.4 2.00001 17.8335 2.00001 12.2C1.99644 9.5846 3.00107 7.06846 4.80501 5.17476C5.75684 4.17036 6.90361 3.37076 8.17515 2.82487C9.44669 2.27899 10.8162 1.99831 12.2 2.00001C13.536 1.99828 14.8592 2.25984 16.094 2.76976C17.3289 3.27967 18.4511 4.02793 19.3966 4.97178C20.3499 5.91845 21.1062 7.04466 21.6217 8.28532C22.1372 9.52598 22.4017 10.8565 22.4 12.2V12.2Z" stroke="#EB4B89" stroke-width="4" stroke-linecap="round" stroke-linejoin="round"/>
<path d="M22.4 12.2002C20.9118 12.2002 16.8063 11.6392 13.1317 13.2523C9.13998 15.0052 6.24981 17.724 4.99011 19.4151" stroke="#EB4B89" stroke-width="4" stroke-linecap="round" stroke-linejoin="round"/>
<path d="M8.375 2.74174C9.9713 4.21513 13.4546 7.96617 14.75 11.6902C16.0454 15.4142 16.5248 19.993 16.8206 21.296" stroke="#EB4B89" stroke-width="4" stroke-linecap="round" stroke-linejoin="round"/>
<path d="M2.07861 10.925C4.00539 11.0413 9.1059 11.1459 12.3699 9.75204C15.6339 8.35821 18.4425 5.79444 19.4058 4.981M2.76507 16.0827C3.66385 18.2583 5.28483 20.0577 7.35507 21.1781" stroke="#EB4B89" stroke-width="4" stroke-linecap="round" stroke-linejoin="round"/>
<path d="M2.00001 12.2C1.99644 9.5846 3.00107 7.06846 4.80501 5.17476M12.2 2.00001C10.8162 1.99831 9.44669 2.27899 8.17515 2.82487C6.90361 3.37076 5.75684 4.17036 4.80501 5.17476M16.28 2.84865C17.4416 3.35688 18.4984 4.07685 19.3966 4.97178C20.3499 5.91845 21.1062 7.04466 21.6217 8.28532C22.1372 9.52598 22.4017 10.8565 22.4 12.2C22.4 13.4556 22.173 14.6587 21.7574 15.77M12.2 22.4C13.536 22.4017 14.8592 22.1402 16.094 21.6302C17.3289 21.1203 18.4511 20.3721 19.3966 19.4282" stroke="#EB4B89" stroke-width="4" stroke-linecap="round" stroke-linejoin="round"/>
</svg>
