<svg width="90" height="21" viewBox="0 0 90 21" fill="none" xmlns="http://www.w3.org/2000/svg">
<path d="M10.4307 7.22949V9.74316H2.2666V7.22949H10.4307ZM3.22266 0.859375V16.5H0V0.859375H3.22266ZM12.7295 0.859375V16.5H9.51758V0.859375H12.7295ZM20.6895 16.7148C19.7871 16.7148 18.9779 16.5716 18.2617 16.2852C17.5456 15.9915 16.9368 15.5869 16.4355 15.0713C15.9414 14.5557 15.5618 13.9577 15.2969 13.2773C15.0319 12.5898 14.8994 11.8594 14.8994 11.0859V10.6562C14.8994 9.77539 15.0247 8.96973 15.2754 8.23926C15.526 7.50879 15.8841 6.875 16.3496 6.33789C16.8223 5.80078 17.3952 5.389 18.0684 5.10254C18.7415 4.80892 19.5007 4.66211 20.3457 4.66211C21.1693 4.66211 21.8997 4.79818 22.5371 5.07031C23.1745 5.34245 23.708 5.72917 24.1377 6.23047C24.5745 6.73177 24.904 7.33333 25.126 8.03516C25.348 8.72982 25.459 9.50326 25.459 10.3555V11.6445H16.2207V9.58203H22.4189V9.3457C22.4189 8.91602 22.3402 8.53288 22.1826 8.19629C22.0322 7.85254 21.8031 7.5804 21.4951 7.37988C21.1872 7.17936 20.7933 7.0791 20.3135 7.0791C19.9053 7.0791 19.5544 7.16862 19.2607 7.34766C18.9671 7.52669 18.7272 7.77734 18.541 8.09961C18.362 8.42188 18.2259 8.80143 18.1328 9.23828C18.0469 9.66797 18.0039 10.1406 18.0039 10.6562V11.0859C18.0039 11.5514 18.0684 11.9811 18.1973 12.375C18.3333 12.7689 18.5231 13.109 18.7666 13.3955C19.0173 13.682 19.318 13.904 19.6689 14.0615C20.027 14.2191 20.4316 14.2979 20.8828 14.2979C21.4414 14.2979 21.9606 14.1904 22.4404 13.9756C22.9274 13.7536 23.3464 13.4206 23.6973 12.9766L25.2012 14.6094C24.9577 14.9603 24.6247 15.2969 24.2021 15.6191C23.7868 15.9414 23.2855 16.2064 22.6982 16.4141C22.111 16.6146 21.4414 16.7148 20.6895 16.7148ZM30.4863 0V16.5H27.3818V0H30.4863ZM36.3086 0V16.5H33.2041V0H36.3086ZM38.3711 10.8066V10.5811C38.3711 9.72884 38.4928 8.94466 38.7363 8.22852C38.9798 7.50521 39.3343 6.87858 39.7998 6.34863C40.2653 5.81868 40.8382 5.4069 41.5186 5.11328C42.1989 4.8125 42.9795 4.66211 43.8604 4.66211C44.7412 4.66211 45.5254 4.8125 46.2129 5.11328C46.9004 5.4069 47.4769 5.81868 47.9424 6.34863C48.415 6.87858 48.7731 7.50521 49.0166 8.22852C49.2601 8.94466 49.3818 9.72884 49.3818 10.5811V10.8066C49.3818 11.6517 49.2601 12.4359 49.0166 13.1592C48.7731 13.8753 48.415 14.502 47.9424 15.0391C47.4769 15.569 46.904 15.9808 46.2236 16.2744C45.5433 16.568 44.7627 16.7148 43.8818 16.7148C43.001 16.7148 42.2168 16.568 41.5293 16.2744C40.849 15.9808 40.2725 15.569 39.7998 15.0391C39.3343 14.502 38.9798 13.8753 38.7363 13.1592C38.4928 12.4359 38.3711 11.6517 38.3711 10.8066ZM41.4648 10.5811V10.8066C41.4648 11.2936 41.5078 11.7484 41.5938 12.1709C41.6797 12.5934 41.8158 12.9658 42.002 13.2881C42.1953 13.6032 42.446 13.8503 42.7539 14.0293C43.0618 14.2083 43.4378 14.2979 43.8818 14.2979C44.3115 14.2979 44.6803 14.2083 44.9883 14.0293C45.2962 13.8503 45.5433 13.6032 45.7295 13.2881C45.9157 12.9658 46.0518 12.5934 46.1377 12.1709C46.2308 11.7484 46.2773 11.2936 46.2773 10.8066V10.5811C46.2773 10.1084 46.2308 9.66439 46.1377 9.24902C46.0518 8.8265 45.9121 8.4541 45.7188 8.13184C45.5326 7.80241 45.2855 7.5446 44.9775 7.3584C44.6696 7.1722 44.2972 7.0791 43.8604 7.0791C43.4235 7.0791 43.0511 7.1722 42.7432 7.3584C42.4424 7.5446 42.1953 7.80241 42.002 8.13184C41.8158 8.4541 41.6797 8.8265 41.5938 9.24902C41.5078 9.66439 41.4648 10.1084 41.4648 10.5811ZM54.2158 13.8896L54.2051 15.9629C54.2051 16.7578 54.0046 17.5599 53.6035 18.3691C53.2096 19.1784 52.7083 19.8408 52.0996 20.3564L50.4883 19.5293C50.6673 19.1999 50.8428 18.8704 51.0146 18.541C51.1865 18.2116 51.3298 17.8499 51.4443 17.4561C51.5589 17.0622 51.6162 16.6146 51.6162 16.1133V13.8896H54.2158ZM65.4414 4.87695V16.5H62.3369V4.87695H65.4414ZM62.1436 1.84766C62.1436 1.39648 62.3011 1.02409 62.6162 0.730469C62.9313 0.436849 63.3538 0.290039 63.8838 0.290039C64.4066 0.290039 64.8255 0.436849 65.1406 0.730469C65.4629 1.02409 65.624 1.39648 65.624 1.84766C65.624 2.29883 65.4629 2.67122 65.1406 2.96484C64.8255 3.25846 64.4066 3.40527 63.8838 3.40527C63.3538 3.40527 62.9313 3.25846 62.6162 2.96484C62.3011 2.67122 62.1436 2.29883 62.1436 1.84766ZM70.8232 0V1.63281C70.8232 2.09831 70.7337 2.57812 70.5547 3.07227C70.3828 3.56641 70.1501 4.03548 69.8564 4.47949C69.5628 4.91634 69.2406 5.28874 68.8896 5.59668L67.4395 4.75879C67.7044 4.33626 67.93 3.87793 68.1162 3.38379C68.3024 2.88249 68.3955 2.30241 68.3955 1.64355V0H70.8232ZM75.9258 7.2832V16.5H72.8213V4.87695H75.7324L75.9258 7.2832ZM75.4961 10.2803H74.6367C74.6367 9.47103 74.7334 8.72624 74.9268 8.0459C75.1273 7.3584 75.4173 6.764 75.7969 6.2627C76.1836 5.75423 76.6598 5.36035 77.2256 5.08105C77.7913 4.80176 78.4466 4.66211 79.1914 4.66211C79.707 4.66211 80.1797 4.74089 80.6094 4.89844C81.0391 5.04883 81.4079 5.28874 81.7158 5.61816C82.0309 5.94043 82.2744 6.36296 82.4463 6.88574C82.6182 7.40137 82.7041 8.02083 82.7041 8.74414V16.5H79.6104V9.08789C79.6104 8.55794 79.5387 8.14974 79.3955 7.86328C79.2523 7.57682 79.0482 7.3763 78.7832 7.26172C78.5254 7.14714 78.2139 7.08984 77.8486 7.08984C77.4476 7.08984 77.0967 7.1722 76.7959 7.33691C76.5023 7.50163 76.2588 7.73079 76.0654 8.02441C75.8721 8.31087 75.7288 8.64746 75.6357 9.03418C75.5426 9.4209 75.4961 9.83626 75.4961 10.2803ZM82.4141 9.92578L81.3076 10.0654C81.3076 9.30632 81.4007 8.60091 81.5869 7.94922C81.7803 7.29753 82.0632 6.72461 82.4355 6.23047C82.8151 5.73633 83.2842 5.35319 83.8428 5.08105C84.4014 4.80176 85.0459 4.66211 85.7764 4.66211C86.335 4.66211 86.8434 4.74447 87.3018 4.90918C87.7601 5.06673 88.1504 5.32096 88.4727 5.67188C88.8021 6.01562 89.0527 6.4668 89.2246 7.02539C89.4036 7.58398 89.4932 8.2679 89.4932 9.07715V16.5H86.3887V9.07715C86.3887 8.54004 86.3171 8.13184 86.1738 7.85254C86.0378 7.56608 85.8372 7.36914 85.5723 7.26172C85.3145 7.14714 85.0065 7.08984 84.6484 7.08984C84.276 7.08984 83.9502 7.16504 83.6709 7.31543C83.3916 7.45866 83.1589 7.65918 82.9727 7.91699C82.7865 8.1748 82.6468 8.47559 82.5537 8.81934C82.4606 9.15592 82.4141 9.52474 82.4141 9.92578Z" fill="white"/>
</svg>
